<svg xmlns="http://www.w3.org/2000/svg" width="47" height="48" viewBox="0 0 47 48" fill="none">
  <rect x="0.5" y="2" width="44" height="44" rx="22" fill="white" fill-opacity="0.08"/>
  <rect x="-0.5" y="1" width="46" height="46" rx="23" stroke="white" stroke-opacity="0.08" stroke-width="2"/>
  <circle cx="22.5" cy="24" r="20" fill="white" fill-opacity="0.08"/>
  <path d="M26 19C26 18.5075 25.903 18.0199 25.7145 17.5649C25.5261 17.11 25.2499 16.6966 24.9017 16.3483C24.5534 16.0001 24.14 15.7239 23.6851 15.5355C23.2301 15.347 22.7425 15.25 22.25 15.25C21.7575 15.25 21.2699 15.347 20.8149 15.5355C20.36 15.7239 19.9466 16.0001 19.5983 16.3483C19.2501 16.6966 18.9739 17.11 18.7855 17.5649C18.597 18.0199 18.5 18.5075 18.5 19C18.5 19.4925 18.597 19.9801 18.7855 20.4351C18.9739 20.89 19.2501 21.3034 19.5983 21.6517C19.9466 21.9999 20.36 22.2761 20.8149 22.4645C21.2699 22.653 21.7575 22.75 22.25 22.75C22.7425 22.75 23.2301 22.653 23.6851 22.4645C24.14 22.2761 24.5534 21.9999 24.9017 21.6517C25.2499 21.3034 25.5261 20.89 25.7145 20.4351C25.903 19.9801 26 19.4925 26 19ZM17.25 19C17.25 17.6739 17.7768 16.4021 18.7145 15.4645C19.6521 14.5268 20.9239 14 22.25 14C23.5761 14 24.8479 14.5268 25.7855 15.4645C26.7232 16.4021 27.25 17.6739 27.25 19C27.25 20.3261 26.7232 21.5979 25.7855 22.5355C24.8479 23.4732 23.5761 24 22.25 24C20.9239 24 19.6521 23.4732 18.7145 22.5355C17.7768 21.5979 17.25 20.3261 17.25 19ZM14.75 32.75H29.75C29.7031 29.6367 27.1641 27.125 24.0352 27.125H20.4648C17.3398 27.125 14.8008 29.6367 14.75 32.75ZM13.5 32.8398C13.5 28.9922 16.6172 25.875 20.4648 25.875H24.0352C27.8828 25.875 31 28.9922 31 32.8398C31 33.4805 30.4805 34 29.8398 34H14.6602C14.0195 34 13.5 33.4805 13.5 32.8398Z" fill="white"/>
</svg>