<svg width="17" height="12" viewBox="0 0 17 12" fill="none" xmlns="http://www.w3.org/2000/svg">
<path d="M13.6215 1.55588C13.6215 2.53644 14.4187 3.33366 15.3993 3.33366V2.44477C15.3993 1.9531 15.002 1.55588 14.5104 1.55588H13.6215ZM12.7326 1.55588H3.8437C3.8437 3.0281 2.64926 4.22255 1.17704 4.22255V7.7781C2.64926 7.7781 3.8437 8.97255 3.8437 10.4448H12.7326C12.7326 8.97255 13.927 7.7781 15.3993 7.7781V4.22255C13.927 4.22255 12.7326 3.0281 12.7326 1.55588ZM1.17704 9.55588C1.17704 10.0475 1.57426 10.4448 2.06592 10.4448H2.95481C2.95481 9.46421 2.15759 8.66699 1.17704 8.66699V9.55588ZM15.3993 8.66699C14.4187 8.66699 13.6215 9.46421 13.6215 10.4448H14.5104C15.002 10.4448 15.3993 10.0475 15.3993 9.55588V8.66699ZM2.06592 1.55588C1.57426 1.55588 1.17704 1.9531 1.17704 2.44477V3.33366C2.15759 3.33366 2.95481 2.53644 2.95481 1.55588H2.06592ZM0.288147 2.44477C0.288147 1.46421 1.08537 0.666992 2.06592 0.666992H14.5104C15.4909 0.666992 16.2881 1.46421 16.2881 2.44477V9.55588C16.2881 10.5364 15.4909 11.3337 14.5104 11.3337H2.06592C1.08537 11.3337 0.288147 10.5364 0.288147 9.55588V2.44477ZM10.0659 6.00033C10.0659 5.52883 9.87862 5.07664 9.54523 4.74325C9.21183 4.40985 8.75964 4.22255 8.28815 4.22255C7.81665 4.22255 7.36447 4.40985 7.03107 4.74325C6.69767 5.07664 6.51037 5.52883 6.51037 6.00033C6.51037 6.47182 6.69767 6.92401 7.03107 7.2574C7.36447 7.5908 7.81665 7.7781 8.28815 7.7781C8.75964 7.7781 9.21183 7.5908 9.54523 7.2574C9.87862 6.92401 10.0659 6.47182 10.0659 6.00033ZM5.62148 6.00033C5.62148 5.29308 5.90243 4.6148 6.40253 4.11471C6.90263 3.61461 7.5809 3.33366 8.28815 3.33366C8.99539 3.33366 9.67367 3.61461 10.1738 4.11471C10.6739 4.6148 10.9548 5.29308 10.9548 6.00033C10.9548 6.70757 10.6739 7.38585 10.1738 7.88594C9.67367 8.38604 8.99539 8.66699 8.28815 8.66699C7.5809 8.66699 6.90263 8.38604 6.40253 7.88594C5.90243 7.38585 5.62148 6.70757 5.62148 6.00033Z" fill="#F5F5F5"/>
</svg>
