<svg xmlns="http://www.w3.org/2000/svg" width="16" height="16" viewBox="0 0 16 16" fill="none">
  <g clip-path="url(#clip0_717_2925)">
    <path d="M7.99995 2C3.9312 2 0.99995 4.64375 0.99995 7.5C0.99995 8.65938 1.48433 9.70625 2.24995 10.625C2.41245 10.8219 2.51245 11.0875 2.4812 11.3719C2.38433 12.2156 2.12495 13.0125 1.67808 13.7563C1.66245 13.7844 1.6437 13.8125 1.62808 13.8375C1.97495 13.7469 2.32183 13.6187 2.64995 13.4781C3.1812 13.2469 3.6812 12.9563 4.16245 12.6219C4.42807 12.4375 4.7687 12.3875 5.07495 12.4906C6.0312 12.8156 6.99995 13 7.99995 13C12.0687 13 15 10.3562 15 7.5C15 4.64375 12.0687 2 7.99995 2ZM-4.98406e-05 7.5C-4.98406e-05 3.9125 3.57808 1 7.99995 1C12.4218 1 16 3.9125 16 7.5C16 11.0875 12.4218 14 7.99995 14C6.87495 14 5.79682 13.7906 4.7562 13.4406C4.74995 13.4375 4.74057 13.4406 4.73432 13.4438C4.2062 13.8094 3.64995 14.1344 3.04995 14.3969C2.29995 14.7219 1.39683 15 0.49995 15C0.296825 15 0.115575 14.8781 0.0374502 14.6938C-0.0406748 14.5094 0.00307515 14.2937 0.1437 14.15C0.396825 13.8937 0.6187 13.5812 0.821825 13.2437C1.18745 12.6312 1.4062 11.975 1.48745 11.2719C1.48745 11.2719 1.48433 11.2688 1.48433 11.2656C0.61245 10.2219 -4.98406e-05 8.95625 -4.98406e-05 7.5Z" fill="#C3C3C3"/>
  </g>
  <defs>
    <clipPath id="clip0_717_2925">
      <rect width="16" height="16" fill="white"/>
    </clipPath>
  </defs>
</svg>