<svg xmlns="http://www.w3.org/2000/svg" width="16" height="14" viewBox="0 0 16 14" fill="none">
  <path d="M0.8 4.99961C0.8 3.12961 2.6425 1.39961 5.2 1.39961C7.7575 1.39961 9.6 3.12961 9.6 4.99961C9.6 6.86961 7.7575 8.59961 5.2 8.59961C4.8175 8.59961 4.435 8.55211 4.0425 8.47461C3.955 8.45711 3.865 8.46961 3.7875 8.50961C3.635 8.58711 3.4875 8.65961 3.3375 8.72711C2.6275 9.04961 1.8325 9.30461 1.05 9.37711C1.4225 8.90211 1.72 8.38461 1.99 7.87961C2.0725 7.72711 2.0475 7.53961 1.9275 7.41461C1.25 6.70461 0.8 5.92711 0.8 4.99961ZM5.2 0.599609C2.3275 0.599609 0 2.57211 0 4.99961C0 6.10461 0.495 7.00211 1.15 7.74961C0.8575 8.27461 0.55 8.76461 0.1625 9.18711L0.16 9.18961C-0.0025 9.36461 -0.045 9.61711 0.05 9.83461C0.145 10.0571 0.36 10.1996 0.6 10.1996C1.675 10.1996 2.7625 9.86711 3.6675 9.45711C3.79 9.40211 3.9075 9.34461 4.025 9.28711C4.4075 9.35711 4.7975 9.40211 5.2 9.40211C8.0725 9.40211 10.4 7.42961 10.4 5.00211C10.4 2.57461 8.0725 0.599609 5.2 0.599609ZM11.185 4.61211C13.54 4.77461 15.2 6.42461 15.2 8.19961C15.2 9.12711 14.75 9.90461 14.0725 10.6146C13.9525 10.7396 13.9275 10.9271 14.01 11.0796C14.2825 11.5846 14.5775 12.0996 14.95 12.5771C14.1675 12.5021 13.37 12.2471 12.6625 11.9271C12.5125 11.8596 12.365 11.7871 12.2125 11.7096C12.1325 11.6696 12.0425 11.6571 11.9575 11.6746C11.5675 11.7521 11.185 11.7996 10.8 11.7996C9.095 11.7996 7.71 11.0321 6.9725 9.96711C6.6975 10.0421 6.415 10.0971 6.1275 10.1371C6.975 11.5946 8.7475 12.5996 10.8 12.5996C11.2025 12.5996 11.5925 12.5546 11.975 12.4846C12.09 12.5421 12.21 12.5996 12.3325 12.6546C13.2375 13.0671 14.325 13.3996 15.4 13.3996C15.64 13.3996 15.855 13.2571 15.95 13.0371C16.045 12.8196 16 12.5646 15.84 12.3921L15.8375 12.3896C15.45 11.9646 15.1425 11.4771 14.85 10.9521C15.505 10.2046 16 9.30711 16 8.20211C16 5.84211 13.805 3.91461 11.045 3.80711C11.115 4.06711 11.1625 4.33711 11.185 4.61461V4.61211Z" fill="#EF6B16"/>
</svg>