<svg width="16" height="17" viewBox="0 0 16 17" fill="none" xmlns="http://www.w3.org/2000/svg">
<path d="M16 0.785156C16 0.388281 15.6781 0.0664062 15.2812 0.0664062C15.2094 0.0664062 15.1375 0.0757813 15.0688 0.0976562L5.35 3.08828C5.14375 3.15391 5 3.34766 5 3.56641V7.31641V11.7039C4.46875 11.307 3.76875 11.0664 3 11.0664C1.34375 11.0664 0 12.1852 0 13.5664C0 14.9477 1.34375 16.0664 3 16.0664C4.65625 16.0664 6 14.9477 6 13.5664V7.76328L15 4.99453V9.70391C14.4688 9.30703 13.7688 9.06641 13 9.06641C11.3438 9.06641 10 10.1852 10 11.5664C10 12.9477 11.3438 14.0664 13 14.0664C14.6562 14.0664 16 12.9477 16 11.5664V4.32891C16 4.32266 16 4.31328 16 4.30703V0.785156ZM15 11.5664C15 12.232 14.2844 13.0664 13 13.0664C11.7156 13.0664 11 12.232 11 11.5664C11 10.9008 11.7156 10.0664 13 10.0664C14.2844 10.0664 15 10.9008 15 11.5664ZM5 13.5664C5 14.232 4.28438 15.0664 3 15.0664C1.71563 15.0664 1 14.232 1 13.5664C1 12.9008 1.71563 12.0664 3 12.0664C4.28438 12.0664 5 12.9008 5 13.5664ZM15 3.94766L6 6.71641V3.93516L15 1.16641V3.94766Z" fill="#C3C3C3"/>
</svg>
