<svg xmlns="http://www.w3.org/2000/svg" width="16" height="4" viewBox="0 0 16 4" fill="none">
  <path d="M16 2.00008C16 2.3537 15.8595 2.69284 15.6095 2.94289C15.3594 3.19294 15.0203 3.33341 14.6667 3.33341C14.313 3.33341 13.9739 3.19294 13.7239 2.94289C13.4738 2.69284 13.3333 2.3537 13.3333 2.00008C13.3333 1.64646 13.4738 1.30732 13.7239 1.05727C13.9739 0.807224 14.313 0.666748 14.6667 0.666748C15.0203 0.666748 15.3594 0.807224 15.6095 1.05727C15.8595 1.30732 16 1.64646 16 2.00008ZM9.33333 2.00008C9.33333 2.3537 9.19286 2.69284 8.94281 2.94289C8.69276 3.19294 8.35362 3.33341 8 3.33341C7.64638 3.33341 7.30724 3.19294 7.05719 2.94289C6.80714 2.69284 6.66667 2.3537 6.66667 2.00008C6.66667 1.64646 6.80714 1.30732 7.05719 1.05727C7.30724 0.807224 7.64638 0.666748 8 0.666748C8.35362 0.666748 8.69276 0.807224 8.94281 1.05727C9.19286 1.30732 9.33333 1.64646 9.33333 2.00008ZM1.33333 3.33341C0.979711 3.33341 0.640573 3.19294 0.390524 2.94289C0.140476 2.69284 0 2.3537 0 2.00008C0 1.64646 0.140476 1.30732 0.390524 1.05727C0.640573 0.807224 0.979711 0.666748 1.33333 0.666748C1.68696 0.666748 2.02609 0.807224 2.27614 1.05727C2.52619 1.30732 2.66667 1.64646 2.66667 2.00008C2.66667 2.3537 2.52619 2.69284 2.27614 2.94289C2.02609 3.19294 1.68696 3.33341 1.33333 3.33341Z" fill="#C3C3C3"/>
</svg>