<svg width="4" height="16" viewBox="0 0 4 16" fill="none" xmlns="http://www.w3.org/2000/svg">
<path d="M2.26628 16C1.91265 16 1.57352 15.8595 1.32347 15.6095C1.07342 15.3594 0.932942 15.0203 0.932942 14.6667C0.932942 14.313 1.07342 13.9739 1.32347 13.7239C1.57352 13.4738 1.91265 13.3333 2.26628 13.3333C2.6199 13.3333 2.95904 13.4738 3.20908 13.7239C3.45913 13.9739 3.59961 14.313 3.59961 14.6667C3.59961 15.0203 3.45913 15.3594 3.20908 15.6095C2.95904 15.8595 2.6199 16 2.26628 16ZM2.26628 9.33334C1.91265 9.33334 1.57352 9.19286 1.32347 8.94281C1.07342 8.69276 0.932942 8.35362 0.932942 8C0.932942 7.64638 1.07342 7.30724 1.32347 7.05719C1.57352 6.80714 1.91265 6.66667 2.26628 6.66667C2.6199 6.66667 2.95904 6.80714 3.20908 7.05719C3.45913 7.30724 3.59961 7.64638 3.59961 8C3.59961 8.35362 3.45913 8.69276 3.20908 8.94281C2.95904 9.19286 2.6199 9.33334 2.26628 9.33334ZM0.932942 1.33333C0.932942 0.979711 1.07342 0.640573 1.32347 0.390524C1.57352 0.140476 1.91265 0 2.26628 0C2.6199 0 2.95904 0.140476 3.20908 0.390524C3.45913 0.640573 3.59961 0.979711 3.59961 1.33333C3.59961 1.68696 3.45913 2.02609 3.20908 2.27614C2.95904 2.52619 2.6199 2.66667 2.26628 2.66667C1.91265 2.66667 1.57352 2.52619 1.32347 2.27614C1.07342 2.02609 0.932942 1.68696 0.932942 1.33333Z" fill="#C3C3C3"/>
</svg>
