<svg width="38" height="40" viewBox="0 0 38 40" fill="none" xmlns="http://www.w3.org/2000/svg">
<rect x="0.288147" width="37.7119" height="40" rx="8" fill="#155A52"/>
<path d="M14.2985 13.2256C14.1235 13.1184 13.9021 13.1149 13.72 13.2148C13.5379 13.3148 13.4272 13.5076 13.4272 13.7148V26.284C13.4272 26.4911 13.5379 26.6803 13.72 26.7839C13.9021 26.8874 14.12 26.8803 14.2985 26.7732L24.5824 20.4886C24.7538 20.385 24.8574 20.1993 24.8574 19.9994C24.8574 19.7994 24.7538 19.6173 24.5824 19.5102L14.2985 13.2256ZM13.163 12.2186C13.7058 11.9151 14.3664 11.9294 14.8948 12.2507L25.1787 18.5353C25.6893 18.846 26 19.3995 26 19.9994C26 20.5992 25.6893 21.1492 25.1787 21.4634L14.8948 27.748C14.3664 28.0729 13.7022 28.0836 13.163 27.7801C12.6238 27.4766 12.2881 26.9053 12.2881 26.284V13.7148C12.2881 13.0934 12.6238 12.5221 13.163 12.2186Z" fill="#F5F5F5"/>
</svg>
