<svg width="16" height="15" viewBox="0 0 16 15" fill="none" xmlns="http://www.w3.org/2000/svg">
<path d="M1.01875 7.55391C1.28125 3.92578 4.30625 1.06641 8 1.06641C11.6938 1.06641 14.7188 3.92578 14.9812 7.55391C14.5656 7.24766 14.0531 7.06641 13.5 7.06641C12.6719 7.06641 12 7.73828 12 8.56641V12.5664C12 13.3945 12.6719 14.0664 13.5 14.0664C14.8813 14.0664 16 12.9477 16 11.5664V10.5664V9.56641V8.06641C16 3.64766 12.4187 0.0664062 8 0.0664062C3.58125 0.0664062 0 3.64766 0 8.06641V9.56641V10.5664V11.5664C0 12.9477 1.11875 14.0664 2.5 14.0664C3.32812 14.0664 4 13.3945 4 12.5664V8.56641C4 7.73828 3.32812 7.06641 2.5 7.06641C1.94687 7.06641 1.43437 7.24766 1.01875 7.55391ZM1 9.56641C1 8.73828 1.67188 8.06641 2.5 8.06641C2.775 8.06641 3 8.29141 3 8.56641V12.5664C3 12.8414 2.775 13.0664 2.5 13.0664C1.67188 13.0664 1 12.3945 1 11.5664V10.5664V9.56641ZM15 9.56641V10.5664V11.5664C15 12.3945 14.3281 13.0664 13.5 13.0664C13.225 13.0664 13 12.8414 13 12.5664V8.56641C13 8.29141 13.225 8.06641 13.5 8.06641C14.3281 8.06641 15 8.73828 15 9.56641Z" fill="#C3C3C3"/>
</svg>
