<svg xmlns="http://www.w3.org/2000/svg" width="16" height="16" viewBox="0 0 16 16" fill="none">
  <path d="M15.6281 0.984067C15.8938 0.912192 16.0531 0.640317 15.9812 0.371567C15.9094 0.102817 15.6375 -0.0534328 15.3687 0.0184422L1.85625 3.62157C0.878125 3.88407 0.165625 4.70282 0.025 5.68407C0.009375 5.78719 0 5.89032 0 5.99969V6.03719V7.49969V13.9997C0 15.1028 0.896875 15.9997 2 15.9997H14C15.1031 15.9997 16 15.1028 16 13.9997V5.99969C16 4.89657 15.1031 3.99969 14 3.99969H4.31563L15.6281 0.984067ZM1 6.03719C1 5.96844 1.00313 5.90282 1.0125 5.83719C1.09063 5.36219 1.50312 4.99969 2 4.99969H14C14.5531 4.99969 15 5.44657 15 5.99969V13.9997C15 14.5528 14.5531 14.9997 14 14.9997H2C1.44687 14.9997 1 14.5528 1 13.9997V7.49969V6.03719ZM3 7.49969C2.725 7.49969 2.5 7.72469 2.5 7.99969C2.5 8.27469 2.725 8.49969 3 8.49969H6C6.275 8.49969 6.5 8.27469 6.5 7.99969C6.5 7.72469 6.275 7.49969 6 7.49969H3ZM2.5 9.49969C2.225 9.49969 2 9.72469 2 9.99969C2 10.2747 2.225 10.4997 2.5 10.4997H6.5C6.775 10.4997 7 10.2747 7 9.99969C7 9.72469 6.775 9.49969 6.5 9.49969H2.5ZM3 11.4997C2.725 11.4997 2.5 11.7247 2.5 11.9997C2.5 12.2747 2.725 12.4997 3 12.4997H6C6.275 12.4997 6.5 12.2747 6.5 11.9997C6.5 11.7247 6.275 11.4997 6 11.4997H3ZM11 11.9997C10.4696 11.9997 9.96086 11.789 9.58579 11.4139C9.21071 11.0388 9 10.5301 9 9.99969C9 9.46926 9.21071 8.96055 9.58579 8.58548C9.96086 8.21041 10.4696 7.99969 11 7.99969C11.5304 7.99969 12.0391 8.21041 12.4142 8.58548C12.7893 8.96055 13 9.46926 13 9.99969C13 10.5301 12.7893 11.0388 12.4142 11.4139C12.0391 11.789 11.5304 11.9997 11 11.9997ZM8 9.99969C8 10.3937 8.0776 10.7838 8.22836 11.1477C8.37913 11.5117 8.6001 11.8424 8.87868 12.121C9.15726 12.3996 9.48797 12.6206 9.85195 12.7713C10.2159 12.9221 10.606 12.9997 11 12.9997C11.394 12.9997 11.7841 12.9221 12.1481 12.7713C12.512 12.6206 12.8427 12.3996 13.1213 12.121C13.3999 11.8424 13.6209 11.5117 13.7716 11.1477C13.9224 10.7838 14 10.3937 14 9.99969C14 9.60573 13.9224 9.21562 13.7716 8.85164C13.6209 8.48767 13.3999 8.15695 13.1213 7.87837C12.8427 7.5998 12.512 7.37882 12.1481 7.22805C11.7841 7.07729 11.394 6.99969 11 6.99969C10.606 6.99969 10.2159 7.07729 9.85195 7.22805C9.48797 7.37882 9.15726 7.5998 8.87868 7.87837C8.6001 8.15695 8.37913 8.48767 8.22836 8.85164C8.0776 9.21562 8 9.60573 8 9.99969Z" fill="#EF6B16"/>
</svg>