<svg xmlns="http://www.w3.org/2000/svg" width="17" height="12" viewBox="0 0 17 12" fill="none">
  <path d="M1.66319 11.7692C1.36631 12.016 0.950685 12.0723 0.59756 11.9067C0.244435 11.741 0.0225601 11.3879 0.0225601 11.0004V1.00042C0.0225601 0.612925 0.24756 0.2598 0.59756 0.0941746C0.94756 -0.0714504 1.36319 -0.0183254 1.66319 0.231675L7.02256 4.6973V6.00042V7.30355L1.66319 11.7692ZM8.02256 9.00042V6.00042V2.00042V1.00042C8.02256 0.612925 8.24756 0.2598 8.59756 0.0941746C8.94756 -0.0714504 9.36318 -0.0183254 9.66319 0.231675L15.6632 5.23167C15.8913 5.4223 16.0226 5.70355 16.0226 6.00042C16.0226 6.2973 15.8913 6.57855 15.6632 6.76917L9.66319 11.7692C9.36631 12.016 8.95068 12.0723 8.59756 11.9067C8.24444 11.741 8.02256 11.3879 8.02256 11.0004V9.00042Z" fill="#C8C8C8"/>
</svg>