<svg xmlns="http://www.w3.org/2000/svg" width="12" height="16" viewBox="0 0 12 16" fill="none">
  <path d="M1.75937 2.07157C1.60625 1.97782 1.4125 1.9747 1.25312 2.0622C1.09375 2.1497 0.996875 2.31845 0.996875 2.4997V13.4997C0.996875 13.6809 1.09375 13.8466 1.25312 13.9372C1.4125 14.0278 1.60312 14.0216 1.75937 13.9278L10.7594 8.42782C10.9094 8.3372 11 8.1747 11 7.9997C11 7.8247 10.9094 7.66532 10.7594 7.57157L1.75937 2.07157ZM0.765625 1.19032C1.24063 0.924697 1.81875 0.937197 2.28125 1.21845L11.2812 6.71845C11.7281 6.99032 12 7.4747 12 7.9997C12 8.5247 11.7281 9.00595 11.2812 9.28095L2.28125 14.7809C1.81875 15.0653 1.2375 15.0747 0.765625 14.8091C0.29375 14.5434 0 14.0434 0 13.4997V2.4997C0 1.95595 0.29375 1.45595 0.765625 1.19032Z" fill="#EF6B16"/>
</svg>