<svg width="16" height="17" viewBox="0 0 16 17" fill="none" xmlns="http://www.w3.org/2000/svg">
<path d="M14.8031 0.140354C15.4219 0.0184793 16 0.490354 16 1.1216V5.26223H15.9937C15.9969 5.30285 16 5.3466 16 5.38723C16 6.2841 15.1031 7.01223 14 7.01223C12.8969 7.01223 12 6.2841 12 5.38723C12 4.49035 12.8969 3.76223 14 3.76223C14.3656 3.76223 14.7063 3.84035 15 3.98098V1.1216L11 1.9216V6.26223H10.9937C10.9969 6.30285 11 6.3466 11 6.38723C11 7.2841 10.1031 8.01223 9 8.01223C7.89687 8.01223 7 7.2841 7 6.38723C7 5.49035 7.89687 4.76223 9 4.76223C9.36563 4.76223 9.70625 4.84035 10 4.98098V1.9216C10 1.44348 10.3375 1.0341 10.8031 0.940354L14.8031 0.140354ZM15 5.38723C15 5.29035 14.9531 5.15285 14.7844 5.01535C14.6125 4.87473 14.3375 4.76223 14 4.76223C13.6625 4.76223 13.3906 4.87473 13.2156 5.01535C13.0437 5.15285 13 5.29035 13 5.38723C13 5.4841 13.0469 5.6216 13.2156 5.7591C13.3875 5.89973 13.6625 6.01223 14 6.01223C14.3375 6.01223 14.6094 5.89973 14.7844 5.7591C14.9563 5.6216 15 5.4841 15 5.38723ZM10 6.38723C10 6.29035 9.95312 6.15285 9.78438 6.01535C9.6125 5.87473 9.3375 5.76223 9 5.76223C8.6625 5.76223 8.39062 5.87473 8.21562 6.01535C8.04375 6.15285 8 6.29035 8 6.38723C8 6.4841 8.04688 6.6216 8.21562 6.7591C8.3875 6.89973 8.6625 7.01223 9 7.01223C9.3375 7.01223 9.60938 6.89973 9.78438 6.7591C9.95625 6.6216 10 6.4841 10 6.38723ZM3.29375 1.71848L3.10625 1.53098C2.825 1.24973 2.425 1.1216 2.03125 1.18723C1.4375 1.28723 1 1.79973 1 2.40285V2.49348C1 2.86535 1.15312 3.21848 1.425 3.47473L4 5.87785L6.575 3.47473C6.84687 3.2216 7 2.86535 7 2.49348V2.40285C7 1.79973 6.56563 1.2841 5.96875 1.18723C5.575 1.1216 5.175 1.24973 4.89375 1.53098L4.70625 1.71848L4 2.42785L3.29375 1.71848ZM1.86563 0.199729C2.57812 0.0841043 3.30312 0.315354 3.8125 0.824729L4 1.01223L4.1875 0.824729C4.69688 0.315354 5.42188 0.0841043 6.13438 0.199729C7.20938 0.380979 8 1.31223 8 2.40285V2.49348C8 3.14348 7.73125 3.76223 7.25625 4.20598L4.43125 6.84035C4.3125 6.94973 4.15938 7.01223 4 7.01223C3.84063 7.01223 3.68437 6.94973 3.56875 6.84035L0.74375 4.20598C0.26875 3.76223 0 3.14348 0 2.4966V2.40285C0 1.31223 0.790625 0.380979 1.86563 0.199729ZM2.25 10.0122H1.5C1.225 10.0122 1 10.2372 1 10.5122V14.5122C1 14.7872 1.225 15.0122 1.5 15.0122H7.5C7.775 15.0122 8 14.7872 8 14.5122V10.5122C8 10.2372 7.775 10.0122 7.5 10.0122H6.75C6.37187 10.0122 6.025 9.79973 5.85625 9.4591L5.63125 9.01223H3.36875L3.14375 9.4591C2.975 9.79973 2.62812 10.0122 2.25 10.0122ZM6.525 8.56535L6.75 9.01223H7.5C8.32812 9.01223 9 9.6841 9 10.5122V14.5122C9 15.3404 8.32812 16.0122 7.5 16.0122H1.5C0.671875 16.0122 0 15.3404 0 14.5122V10.5122C0 9.6841 0.671875 9.01223 1.5 9.01223H2.25L2.475 8.56535C2.64375 8.22785 2.99063 8.01223 3.36875 8.01223H5.63125C6.00938 8.01223 6.35625 8.22473 6.525 8.56535ZM3.5 12.2622C3.5 12.5274 3.60536 12.7818 3.79289 12.9693C3.98043 13.1569 4.23478 13.2622 4.5 13.2622C4.76522 13.2622 5.01957 13.1569 5.20711 12.9693C5.39464 12.7818 5.5 12.5274 5.5 12.2622C5.5 11.997 5.39464 11.7427 5.20711 11.5551C5.01957 11.3676 4.76522 11.2622 4.5 11.2622C4.23478 11.2622 3.98043 11.3676 3.79289 11.5551C3.60536 11.7427 3.5 11.997 3.5 12.2622ZM4.5 14.2622C3.96957 14.2622 3.46086 14.0515 3.08579 13.6764C2.71071 13.3014 2.5 12.7927 2.5 12.2622C2.5 11.7318 2.71071 11.2231 3.08579 10.848C3.46086 10.4729 3.96957 10.2622 4.5 10.2622C5.03043 10.2622 5.53914 10.4729 5.91421 10.848C6.28929 11.2231 6.5 11.7318 6.5 12.2622C6.5 12.7927 6.28929 13.3014 5.91421 13.6764C5.53914 14.0515 5.03043 14.2622 4.5 14.2622ZM14.8531 8.86535L12.2063 11.5122H15C15.2031 11.5122 15.3844 11.6341 15.4625 11.8216C15.5406 12.0091 15.4969 12.2247 15.3531 12.3654L11.8531 15.8654C11.6594 16.0591 11.3406 16.0591 11.1469 15.8654C10.9531 15.6716 10.9531 15.3529 11.1469 15.1591L13.7937 12.5122H11C10.7969 12.5122 10.6156 12.3904 10.5375 12.2029C10.4594 12.0154 10.5031 11.7997 10.6469 11.6591L14.1469 8.1591C14.3406 7.96535 14.6594 7.96535 14.8531 8.1591C15.0469 8.35285 15.0469 8.6716 14.8531 8.86535Z" fill="#C3C3C3"/>
</svg>
