<svg xmlns="http://www.w3.org/2000/svg" width="17" height="12" viewBox="0 0 17 12" fill="none">
  <path d="M14.6701 0.230825C14.9669 -0.0160494 15.3826 -0.072299 15.7357 0.0933256C16.0888 0.25895 16.3107 0.612076 16.3107 0.999576L16.3107 10.9996C16.3107 11.3871 16.0857 11.7402 15.7357 11.9058C15.3857 12.0715 14.9701 12.0183 14.6701 11.7683L9.3107 7.3027L9.3107 5.99958V4.69645L14.6701 0.230825ZM8.3107 2.99958V5.99958L8.3107 9.99958V10.9996C8.3107 11.3871 8.0857 11.7402 7.7357 11.9058C7.3857 12.0715 6.97007 12.0183 6.67007 11.7683L0.670074 6.76833C0.44195 6.5777 0.310699 6.29645 0.310699 5.99958C0.310699 5.7027 0.44195 5.42145 0.670074 5.23083L6.67007 0.230825C6.96695 -0.0160494 7.38258 -0.072299 7.7357 0.0933256C8.08882 0.25895 8.3107 0.612076 8.3107 0.999576L8.3107 2.99958Z" fill="#C8C8C8"/>
</svg>