<svg xmlns="http://www.w3.org/2000/svg" width="17" height="16" viewBox="0 0 17 16" fill="none">
  <g clip-path="url(#clip0_717_204)">
    <path d="M0.497558 8.49999C0.222558 8.48437 0.0100581 8.24999 0.0225581 7.97499L0.0350581 7.72499C0.181933 4.79687 2.59756 2.49999 5.52881 2.49999H12.2288L10.4351 0.868744C10.2319 0.684369 10.2163 0.365619 10.4007 0.162494C10.5851 -0.0406309 10.9038 -0.0562559 11.1069 0.128119L13.8569 2.62812C13.9601 2.72187 14.0194 2.85624 14.0194 2.99687C14.0194 3.13749 13.9601 3.27187 13.8569 3.36562L11.1069 5.86562C10.9038 6.04999 10.5851 6.03749 10.4007 5.83124C10.2163 5.62499 10.2288 5.30937 10.4351 5.12499L12.2288 3.49999H5.52881C3.13193 3.49999 1.15381 5.38124 1.03506 7.77499L1.02256 8.02499C1.01006 8.29999 0.772558 8.51249 0.497558 8.49999ZM15.5476 7.49999C15.8226 7.51249 16.0351 7.74999 16.0226 8.02499L16.0101 8.27499C15.8632 11.2031 13.4476 13.5 10.5163 13.5H3.81631L5.61006 15.1312C5.81318 15.3156 5.82881 15.6344 5.64443 15.8375C5.46006 16.0406 5.14131 16.0562 4.93818 15.8719L2.18818 13.3719C2.08506 13.2781 2.02568 13.1437 2.02568 13.0031C2.02568 12.8625 2.08506 12.7281 2.18818 12.6344L4.93818 10.1344C5.14131 9.94999 5.46006 9.96249 5.64443 10.1687C5.82881 10.375 5.81631 10.6906 5.61006 10.875L3.81631 12.5H10.5163C12.9132 12.5 14.8913 10.6187 15.0101 8.22499L15.0226 7.97499C15.0351 7.69999 15.2726 7.48749 15.5476 7.49999Z" fill="white"/>
  </g>
  <defs>
    <clipPath id="clip0_717_204">
      <rect width="16" height="16" fill="white" transform="translate(0.0225525)"/>
    </clipPath>
  </defs>
</svg>