<svg xmlns="http://www.w3.org/2000/svg" width="16" height="16" viewBox="0 0 16 16" fill="none">
  <path d="M12.0012 6.50064C12.0012 5.77829 11.8589 5.06303 11.5825 4.39567C11.306 3.72831 10.9009 3.12194 10.3901 2.61117C9.87933 2.1004 9.27296 1.69523 8.6056 1.4188C7.93824 1.14237 7.22298 1.0001 6.50064 1.0001C5.77829 1.0001 5.06303 1.14237 4.39567 1.4188C3.72831 1.69523 3.12194 2.1004 2.61117 2.61117C2.1004 3.12194 1.69523 3.72831 1.4188 4.39567C1.14237 5.06303 1.0001 5.77829 1.0001 6.50064C1.0001 7.22298 1.14237 7.93824 1.4188 8.6056C1.69523 9.27296 2.1004 9.87933 2.61117 10.3901C3.12194 10.9009 3.72831 11.306 4.39567 11.5825C5.06303 11.8589 5.77829 12.0012 6.50064 12.0012C7.22298 12.0012 7.93824 11.8589 8.6056 11.5825C9.27296 11.306 9.87933 10.9009 10.3901 10.3901C10.9009 9.87933 11.306 9.27296 11.5825 8.6056C11.8589 7.93824 12.0012 7.22298 12.0012 6.50064ZM10.7292 11.4386C9.59469 12.4137 8.11642 13.0013 6.50064 13.0013C2.90966 13.0013 0 10.0916 0 6.50064C0 2.90966 2.90966 0 6.50064 0C10.0916 0 13.0013 2.90966 13.0013 6.50064C13.0013 8.11642 12.4137 9.59469 11.4386 10.7292L15.8547 15.1484C16.0484 15.3421 16.0484 15.6609 15.8547 15.8547C15.6609 16.0484 15.3421 16.0484 15.1484 15.8547L10.7292 11.4386Z" fill="#898989"/>
</svg>