<svg xmlns="http://www.w3.org/2000/svg" width="14" height="16" viewBox="0 0 14 16" fill="none">
  <g clip-path="url(#clip0_355_6234)">
    <path d="M14 3.5002C14 4.88145 12.8813 6.0002 11.5 6.0002C10.7844 6.0002 10.1375 5.7002 9.68437 5.21895L4.96562 7.57832C4.99062 7.71582 5 7.85645 5 8.0002C5 8.14395 4.9875 8.28457 4.96562 8.42207L9.68437 10.7814C10.1406 10.3002 10.7844 10.0002 11.5 10.0002C12.8813 10.0002 14 11.1189 14 12.5002C14 13.8814 12.8813 15.0002 11.5 15.0002C10.1187 15.0002 9 13.8814 9 12.5002C9 12.1971 9.05312 11.9064 9.15312 11.6346L4.6 9.35957C4.15312 10.0471 3.38125 10.5002 2.5 10.5002C1.11875 10.5002 0 9.38145 0 8.0002C0 6.61895 1.11875 5.5002 2.5 5.5002C3.38125 5.5002 4.15312 5.95332 4.6 6.64082L9.15312 4.3627C9.05312 4.09395 9 3.80332 9 3.49707C9 2.11582 10.1187 0.99707 11.5 0.99707C12.8813 0.99707 14 2.11582 14 3.49707V3.5002ZM2.5 9.5002C2.89782 9.5002 3.27936 9.34216 3.56066 9.06086C3.84196 8.77955 4 8.39802 4 8.0002C4 7.60237 3.84196 7.22084 3.56066 6.93954C3.27936 6.65823 2.89782 6.5002 2.5 6.5002C2.10218 6.5002 1.72064 6.65823 1.43934 6.93954C1.15804 7.22084 1 7.60237 1 8.0002C1 8.39802 1.15804 8.77955 1.43934 9.06086C1.72064 9.34216 2.10218 9.5002 2.5 9.5002ZM13 3.5002C13 3.10237 12.842 2.72084 12.5607 2.43954C12.2794 2.15823 11.8978 2.0002 11.5 2.0002C11.1022 2.0002 10.7206 2.15823 10.4393 2.43954C10.158 2.72084 10 3.10237 10 3.5002C10 3.89802 10.158 4.27955 10.4393 4.56086C10.7206 4.84216 11.1022 5.0002 11.5 5.0002C11.8978 5.0002 12.2794 4.84216 12.5607 4.56086C12.842 4.27955 13 3.89802 13 3.5002ZM11.5 14.0002C11.697 14.0002 11.892 13.9614 12.074 13.886C12.256 13.8106 12.4214 13.7001 12.5607 13.5609C12.6999 13.4216 12.8104 13.2562 12.8858 13.0742C12.9612 12.8922 13 12.6972 13 12.5002C13 12.3032 12.9612 12.1082 12.8858 11.9262C12.8104 11.7442 12.6999 11.5788 12.5607 11.4395C12.4214 11.3002 12.256 11.1898 12.074 11.1144C11.892 11.039 11.697 11.0002 11.5 11.0002C11.303 11.0002 11.108 11.039 10.926 11.1144C10.744 11.1898 10.5786 11.3002 10.4393 11.4395C10.3001 11.5788 10.1896 11.7442 10.1142 11.9262C10.0388 12.1082 10 12.3032 10 12.5002C10 12.6972 10.0388 12.8922 10.1142 13.0742C10.1896 13.2562 10.3001 13.4216 10.4393 13.5609C10.5786 13.7001 10.744 13.8106 10.926 13.886C11.108 13.9614 11.303 14.0002 11.5 14.0002Z" fill="#EF6B16"/>
  </g>
  <defs>
    <clipPath id="clip0_355_6234">
      <rect width="14" height="16" fill="white"/>
    </clipPath>
  </defs>
</svg>