<svg xmlns="http://www.w3.org/2000/svg" width="16" height="16" viewBox="0 0 16 16" fill="none">
  <path d="M13.3531 1.14727C13.1594 0.953516 12.8406 0.953516 12.6469 1.14727C12.4531 1.34102 12.4531 1.65977 12.6469 1.85352L14.2937 3.50039H12.5H10.75C10.1219 3.50039 9.52812 3.79727 9.15 4.30039L7.625 6.33477L8.25 7.16914L9.95 4.90352C10.1375 4.65039 10.4344 4.50352 10.75 4.50352H12.5H14.2937L12.6469 6.15039C12.4531 6.34414 12.4531 6.66289 12.6469 6.85664C12.8406 7.05039 13.1594 7.05039 13.3531 6.85664L15.8531 4.35664C16.0469 4.16289 16.0469 3.84414 15.8531 3.65039L13.3531 1.15039V1.14727ZM3.9 11.3004C3.80625 11.4254 3.65625 11.5004 3.5 11.5004H0.5C0.225 11.5004 0 11.7254 0 12.0004C0 12.2754 0.225 12.5004 0.5 12.5004H3.5C3.97187 12.5004 4.41562 12.2785 4.7 11.9004L6.375 9.66602L5.75 8.83164L3.9 11.2973V11.3004ZM12.6469 14.8535C12.8406 15.0473 13.1594 15.0473 13.3531 14.8535L15.8531 12.3535C16.0469 12.1598 16.0469 11.841 15.8531 11.6473L13.3531 9.14727C13.1594 8.95352 12.8406 8.95352 12.6469 9.14727C12.4531 9.34102 12.4531 9.65977 12.6469 9.85352L14.2937 11.5004H12.5H10.75C10.4344 11.5004 10.1375 11.3535 9.95 11.1004L4.7 4.10039C4.41562 3.72227 3.97187 3.50039 3.5 3.50039H0.5C0.225 3.50039 0 3.72539 0 4.00039C0 4.27539 0.225 4.50039 0.5 4.50039H3.5C3.65625 4.50039 3.80625 4.57539 3.9 4.70039L9.15 11.7004C9.52812 12.2035 10.1219 12.5004 10.75 12.5004H12.5H14.2937L12.6469 14.1473C12.4531 14.341 12.4531 14.6598 12.6469 14.8535Z" fill="#EF6B16"/>
</svg>