<svg xmlns="http://www.w3.org/2000/svg" width="17" height="16" viewBox="0 0 17 16" fill="none">
  <g clip-path="url(#clip0_717_197)">
    <path d="M13.6638 1.14687C13.4701 0.953119 13.1513 0.953119 12.9576 1.14687C12.7638 1.34062 12.7638 1.65937 12.9576 1.85312L14.6044 3.49999H12.8107H11.0607C10.4326 3.49999 9.83882 3.79687 9.4607 4.29999L7.9357 6.33437L8.5607 7.16874L10.2607 4.90312C10.4482 4.64999 10.7451 4.50312 11.0607 4.50312H12.8107H14.6044L12.9576 6.14999C12.7638 6.34374 12.7638 6.66249 12.9576 6.85624C13.1513 7.04999 13.4701 7.04999 13.6638 6.85624L16.1638 4.35624C16.3576 4.16249 16.3576 3.84374 16.1638 3.64999L13.6638 1.14999V1.14687ZM4.2107 11.3C4.11695 11.425 3.96695 11.5 3.8107 11.5H0.810699C0.535699 11.5 0.310699 11.725 0.310699 12C0.310699 12.275 0.535699 12.5 0.810699 12.5H3.8107C4.28257 12.5 4.72632 12.2781 5.0107 11.9L6.6857 9.66562L6.0607 8.83124L4.2107 11.2969V11.3ZM12.9576 14.8531C13.1513 15.0469 13.4701 15.0469 13.6638 14.8531L16.1638 12.3531C16.3576 12.1594 16.3576 11.8406 16.1638 11.6469L13.6638 9.14687C13.4701 8.95312 13.1513 8.95312 12.9576 9.14687C12.7638 9.34062 12.7638 9.65937 12.9576 9.85312L14.6044 11.5H12.8107H11.0607C10.7451 11.5 10.4482 11.3531 10.2607 11.1L5.0107 4.09999C4.72632 3.72187 4.28257 3.49999 3.8107 3.49999H0.810699C0.535699 3.49999 0.310699 3.72499 0.310699 3.99999C0.310699 4.27499 0.535699 4.49999 0.810699 4.49999H3.8107C3.96695 4.49999 4.11695 4.57499 4.2107 4.69999L9.4607 11.7C9.83882 12.2031 10.4326 12.5 11.0607 12.5H12.8107H14.6044L12.9576 14.1469C12.7638 14.3406 12.7638 14.6594 12.9576 14.8531Z" fill="white"/>
  </g>
  <defs>
    <clipPath id="clip0_717_197">
      <rect width="16" height="16" fill="white" transform="translate(0.310699)"/>
    </clipPath>
  </defs>
</svg>