<svg xmlns="http://www.w3.org/2000/svg" width="16" height="14" viewBox="0 0 16 14" fill="none">
  <path d="M1.77778 1.66623C1.28611 1.66623 0.888889 2.06345 0.888889 2.55512V3.44401H15.1111V2.55512C15.1111 2.06345 14.7139 1.66623 14.2222 1.66623H1.77778ZM0.888889 4.3329V6.11068H15.1111V4.3329H0.888889ZM0.888889 6.99957V11.444C0.888889 11.9357 1.28611 12.3329 1.77778 12.3329H14.2222C14.7139 12.3329 15.1111 11.9357 15.1111 11.444V6.99957H0.888889ZM0 2.55512C0 1.57457 0.797222 0.777344 1.77778 0.777344H14.2222C15.2028 0.777344 16 1.57457 16 2.55512V11.444C16 12.4246 15.2028 13.2218 14.2222 13.2218H1.77778C0.797222 13.2218 0 12.4246 0 11.444V2.55512ZM2.66667 10.1107C2.66667 9.86623 2.86667 9.66623 3.11111 9.66623H4.88889C5.13333 9.66623 5.33333 9.86623 5.33333 10.1107C5.33333 10.3551 5.13333 10.5551 4.88889 10.5551H3.11111C2.86667 10.5551 2.66667 10.3551 2.66667 10.1107ZM6.22222 10.1107C6.22222 9.86623 6.42222 9.66623 6.66667 9.66623H10.2222C10.4667 9.66623 10.6667 9.86623 10.6667 10.1107C10.6667 10.3551 10.4667 10.5551 10.2222 10.5551H6.66667C6.42222 10.5551 6.22222 10.3551 6.22222 10.1107Z" fill="#EF6B16"/>
</svg>