<svg xmlns="http://www.w3.org/2000/svg" width="49" height="48" viewBox="0 0 49 48" fill="none">
  <rect x="2.5" y="2" width="44" height="44" rx="22" fill="white" fill-opacity="0.08"/>
  <rect x="1.5" y="1" width="46" height="46" rx="23" stroke="white" stroke-opacity="0.08" stroke-width="2"/>
  <circle cx="24.5" cy="24" r="20" fill="white" fill-opacity="0.08"/>
  <path d="M28 19C28 18.5075 27.903 18.0199 27.7145 17.5649C27.5261 17.11 27.2499 16.6966 26.9017 16.3483C26.5534 16.0001 26.14 15.7239 25.6851 15.5355C25.2301 15.347 24.7425 15.25 24.25 15.25C23.7575 15.25 23.2699 15.347 22.8149 15.5355C22.36 15.7239 21.9466 16.0001 21.5983 16.3483C21.2501 16.6966 20.9739 17.11 20.7855 17.5649C20.597 18.0199 20.5 18.5075 20.5 19C20.5 19.4925 20.597 19.9801 20.7855 20.4351C20.9739 20.89 21.2501 21.3034 21.5983 21.6517C21.9466 21.9999 22.36 22.2761 22.8149 22.4645C23.2699 22.653 23.7575 22.75 24.25 22.75C24.7425 22.75 25.2301 22.653 25.6851 22.4645C26.14 22.2761 26.5534 21.9999 26.9017 21.6517C27.2499 21.3034 27.5261 20.89 27.7145 20.4351C27.903 19.9801 28 19.4925 28 19ZM19.25 19C19.25 17.6739 19.7768 16.4021 20.7145 15.4645C21.6521 14.5268 22.9239 14 24.25 14C25.5761 14 26.8479 14.5268 27.7855 15.4645C28.7232 16.4021 29.25 17.6739 29.25 19C29.25 20.3261 28.7232 21.5979 27.7855 22.5355C26.8479 23.4732 25.5761 24 24.25 24C22.9239 24 21.6521 23.4732 20.7145 22.5355C19.7768 21.5979 19.25 20.3261 19.25 19ZM16.75 32.75H31.75C31.7031 29.6367 29.1641 27.125 26.0352 27.125H22.4648C19.3398 27.125 16.8008 29.6367 16.75 32.75ZM15.5 32.8398C15.5 28.9922 18.6172 25.875 22.4648 25.875H26.0352C29.8828 25.875 33 28.9922 33 32.8398C33 33.4805 32.4805 34 31.8398 34H16.6602C16.0195 34 15.5 33.4805 15.5 32.8398Z" fill="#F5F5F5"/>
</svg>