<svg xmlns="http://www.w3.org/2000/svg" width="20" height="16" viewBox="0 0 20 16" fill="none">
  <path d="M4.7375 5.875L9 2.08437V13.9156L4.7375 10.125C4.64688 10.0437 4.52812 10 4.40625 10H1.75C1.33438 10 1 9.66562 1 9.25V6.75C1 6.33437 1.33438 6 1.75 6H4.40625C4.52812 6 4.64688 5.95625 4.7375 5.875ZM9.06875 1C8.84063 1 8.62187 1.08437 8.45 1.23438L4.21562 5H1.75C0.784375 5 0 5.78438 0 6.75V9.25C0 10.2156 0.784375 11 1.75 11H4.21562L8.45 14.7656C8.62187 14.9156 8.84063 15 9.06875 15C9.58438 15 10 14.5844 10 14.0688V1.93125C10 1.41562 9.58438 1 9.06875 1ZM12.8 5.6C12.5781 5.43437 12.2656 5.47812 12.1 5.7C11.9344 5.92188 11.9781 6.23438 12.2 6.4C12.6875 6.76562 13 7.34688 13 8C13 8.65312 12.6875 9.23438 12.2 9.6C11.9781 9.76562 11.9344 10.0781 12.1 10.3C12.2656 10.5219 12.5781 10.5656 12.8 10.4C13.5281 9.85312 14 8.98125 14 8C14 7.01875 13.5281 6.14687 12.8 5.6ZM14.1125 3.4375C13.9375 3.65 13.9656 3.96563 14.1781 4.14062C15.2938 5.05937 16 6.44688 16 8C16 9.55313 15.2937 10.9406 14.1812 11.8562C13.9688 12.0312 13.9375 12.3469 14.1156 12.5594C14.2938 12.7719 14.6063 12.8031 14.8188 12.625C16.15 11.5281 17 9.8625 17 8C17 6.1375 16.15 4.47188 14.8188 3.37188C14.6063 3.19688 14.2906 3.225 14.1156 3.4375H14.1125ZM16.8219 1.1375C16.6125 0.959375 16.2969 0.984375 16.1156 1.19375C15.9344 1.40313 15.9625 1.71875 16.1719 1.9C17.9 3.36875 18.9969 5.55625 18.9969 8C18.9969 10.4438 17.9 12.6313 16.1719 14.1C15.9625 14.2781 15.9344 14.5938 16.1156 14.8062C16.2969 15.0187 16.6094 15.0437 16.8219 14.8625C18.7656 13.2125 20 10.75 20 8C20 5.25 18.7656 2.7875 16.825 1.1375H16.8219Z" fill="white"/>
</svg>